<svg id="Layer_3" xmlns="http://www.w3.org/2000/svg" xmlns:xlink="http://www.w3.org/1999/xlink" width="176" height="59" viewBox="0 0 1292.72 416.65"><defs><style>.cls-1{clip-path:url(#clippath-11);}.cls-2{clip-path:url(#clippath-2);}.cls-3{clip-path:url(#clippath-6);}.cls-4{clip-path:url(#clippath-7);}.cls-5{clip-path:url(#clippath-1);}.cls-6{clip-path:url(#clippath-4);}.cls-7{clip-path:url(#clippath-9);}.cls-8{clip-path:url(#clippath);}.cls-9{fill:none;}.cls-10{clip-path:url(#clippath-3);}.cls-11{clip-path:url(#clippath-8);}.cls-12{clip-path:url(#clippath-5);}.cls-13{fill:#01fe70;}.cls-14{fill:url(#linear-gradient);}.cls-15{clip-path:url(#clippath-10);}</style><clipPath id="clippath"><path class="cls-9" d="M206.33,235.48l177.14,85.09-177.14,84.19L29.19,320.56l177.14-85.09m0-6.72L15.15,320.59l191.18,90.86,191.18-90.86-191.18-91.83h0Z"/></clipPath><linearGradient id="linear-gradient" x1="206.33" y1="412.42" x2="206.33" y2="6.15" gradientTransform="matrix(1, 0, 0, 1, 0, 0)" gradientUnits="userSpaceOnUse"><stop offset="0" stop-color="#01fe70"/><stop offset=".09" stop-color="#03f772"/><stop offset=".22" stop-color="#0be67a"/><stop offset=".36" stop-color="#17c987"/><stop offset=".52" stop-color="#28a098"/><stop offset=".7" stop-color="#3e6caf"/><stop offset=".88" stop-color="#582eca"/><stop offset="1" stop-color="#6c00df"/></linearGradient><clipPath id="clippath-1"><path class="cls-9" d="M206.33,11.89l177.14,84.19-177.14,85.09L29.19,96.08,206.33,11.89m0-6.7L15.15,96.05l191.18,91.83,191.18-91.83L206.33,5.19h0Z"/></clipPath><clipPath id="clippath-2"><polygon class="cls-9" points="206.33 377.95 52.43 304.8 55.02 299.33 206.33 371.24 357.64 299.33 360.24 304.8 206.33 377.95"/></clipPath><clipPath id="clippath-3"><polygon class="cls-9" points="206.33 341.09 91 286.27 93.6 280.81 206.33 334.39 319.07 280.81 321.67 286.27 206.33 341.09"/></clipPath><clipPath id="clippath-4"><polygon class="cls-9" points="206.33 304.23 129.57 267.75 132.17 262.28 206.33 297.53 280.55 262.26 283.14 267.72 206.33 304.23"/></clipPath><clipPath id="clippath-5"><polygon class="cls-9" points="206.33 267.37 168.14 249.22 170.74 243.75 206.33 260.67 241.93 243.75 244.53 249.22 206.33 267.37"/></clipPath><clipPath id="clippath-6"><polygon class="cls-9" points="357.64 117.34 206.33 45.43 55.02 117.34 52.43 111.87 206.33 38.73 360.24 111.87 357.64 117.34"/></clipPath><clipPath id="clippath-7"><polygon class="cls-9" points="319.07 135.87 206.33 82.29 93.6 135.87 91 130.4 206.33 75.59 321.67 130.4 319.07 135.87"/></clipPath><clipPath id="clippath-8"><polygon class="cls-9" points="280.55 154.42 206.33 119.15 132.17 154.4 129.57 148.93 206.33 112.45 283.14 148.95 280.55 154.42"/></clipPath><clipPath id="clippath-9"><polygon class="cls-9" points="241.93 172.92 206.33 156.01 170.74 172.92 168.14 167.46 206.33 149.3 244.53 167.46 241.93 172.92"/></clipPath><clipPath id="clippath-10"><path class="cls-9" d="M397.51,320.59s-72.33-89.36,0-224.54l-191.18,91.83v40.88l191.18,91.83Z"/></clipPath><clipPath id="clippath-11"><path class="cls-9" d="M15.15,320.59s72.33-89.36,0-224.54l191.18,91.83v40.88L15.15,320.59Z"/></clipPath></defs><g><g class="cls-8"><rect class="cls-14" x="15.15" y="6.15" width="382.36" height="406.26"/></g><g class="cls-5"><rect class="cls-14" x="15.15" y="6.15" width="382.36" height="406.26"/></g><g class="cls-2"><rect class="cls-14" x="15.15" y="6.15" width="382.36" height="406.26"/></g><g class="cls-10"><rect class="cls-14" x="15.15" y="6.15" width="382.36" height="406.26"/></g><g class="cls-6"><rect class="cls-14" x="15.15" y="6.15" width="382.36" height="406.26"/></g><g class="cls-12"><rect class="cls-14" x="15.15" y="6.15" width="382.36" height="406.26"/></g><g class="cls-3"><rect class="cls-14" x="15.15" y="6.15" width="382.36" height="406.26"/></g><g class="cls-4"><rect class="cls-14" x="15.15" y="6.15" width="382.36" height="406.26"/></g><g class="cls-11"><rect class="cls-14" x="15.15" y="6.15" width="382.36" height="406.26"/></g><g class="cls-7"><rect class="cls-14" x="15.15" y="6.15" width="382.36" height="406.26"/></g><g class="cls-15"><rect class="cls-14" x="15.15" y="6.15" width="382.36" height="406.26"/></g><g class="cls-1"><rect class="cls-14" x="15.15" y="6.15" width="382.36" height="406.26"/></g></g><g><polygon class="cls-13" points="616.94 268.34 616.94 150.38 643.42 150.38 702.09 237.6 702.09 150.38 722.85 150.38 722.85 268.34 698.45 268.34 636.15 178.93 636.15 268.34 616.94 268.34"/><rect class="cls-13" x="766.98" y="148.3" width="18.69" height="120.04"/><rect class="cls-13" x="965.48" y="148.3" width="18.69" height="120.04"/><polygon class="cls-13" points="831.88 148.3 919.1 148.3 919.1 171.14 852.64 171.14 852.64 197.1 902.48 197.1 902.48 219.43 853.68 219.43 853.68 268.34 831.88 268.34 831.88 148.3"/><path class="cls-13" d="M1247.04,150.38h-23.36l-46.21,117.97h21.81l9.35-25.04h52.96l8.83,25.04h22.32l-45.69-117.97Zm-29.85,72.16l17.91-43.09,17.91,43.09h-35.82Z"/><path class="cls-13" d="M1123.09,237.46c-6.05,9.72-22.26,10.14-22.26,10.14-8.98,.64-17.95,.63-26.82-1.2-11.46-2.37-18.8-9.04-21.26-20.62-2.36-11.1-2.3-22.27-.31-33.42,.94-5.28,2.88-10.17,6.58-14.21,4.02-4.39,9.19-6.69,14.88-7.82,12.97-2.56,25.95-2.11,38.85,.45,5.09,1.01,10.08,2.46,15.24,3.74,.04-.17,.1-.34,.11-.51,.49-6.27,.97-12.54,1.49-18.81,.07-.82-.37-1.02-.98-1.18-4.72-1.22-9.39-2.64-14.16-3.64-9.6-2.03-19.36-2.26-29.13-1.97-8.78,.26-17.46,1.17-25.88,3.84-6.56,2.08-12.52,5.21-17.48,10.09-6.01,5.93-9.37,13.26-11.36,21.32-2.28,9.19-2.69,18.57-2.52,27.98,.14,8.04,.91,16.02,3.16,23.79,2.55,8.8,6.91,16.44,14.36,22.06,6.8,5.12,14.64,7.67,22.89,9.15,8.79,1.58,17.67,1.83,26.57,1.67,0,0,29.89,.7,45.4-19.54l-17.35-11.3Z"/><path class="cls-13" d="M471.97,150.38h21.26v1.93c0,22.76-.04,45.52,.04,68.27,.01,3.58,.35,7.2,.84,10.74,1.17,8.39,5.73,13.61,13.52,15.25,10.49,2.2,21.06,2.3,31.54,.06,8.37-1.79,12.5-6.7,13.8-15.73,.5-3.5,.77-7.07,.78-10.62,.07-22.67,.03-45.33,.03-68,0-.59,0-1.17,0-1.87h20.38c.02,.49,.07,.98,.07,1.46,0,22.21,.04,44.42-.01,66.63-.02,8.03-.39,16.03-2.2,23.89-2.79,12.14-9.87,19.65-21.09,22.9-7.06,2.04-14.27,2.71-21.53,2.93-8.58,.26-17.15,.17-25.68-1.07-4.79-.7-9.49-1.83-13.94-3.93-7.68-3.61-12.5-9.88-14.96-18.36-2.07-7.13-2.74-14.47-2.77-21.88-.08-23.67-.07-47.34-.09-71.01,0-.49,0-.99,0-1.61Z"/></g></svg>
